# xmcd CD database file
#
# Track frame offsets:
#	150
#	19200
#	40576
#	62476
#	82652
#	104777
#	125778
#	142353
#	161854
#	182254
#	201005
#
# Disc length: 2878 seconds
#
# Revision: 0
# Processed by: cddbd v1.5PL3 Copyright (c) Steve Scherf et al.
# Submitted via: CDex 1.50
#
DISCID=970b3c0b
DTITLE=米倉千尋 - azure
DYEAR=2004
DGENRE=Vocal
TTITLE0=Heaven's Door
TTITLE1=星になるまで
TTITLE2=クローバー
TTITLE3=約束の場所へ
TTITLE4=Beehive
TTITLE5=夢の地図
TTITLE6=She
TTITLE7=プレゼント
TTITLE8=冬のひまわり
TTITLE9=エミリー
TTITLE10=飛べ！紙ヒコーキ
EXTD=YEAR: 2004/02/11
EXTT0=
EXTT1=
EXTT2=
EXTT3=
EXTT4=
EXTT5=
EXTT6=
EXTT7=
EXTT8=
EXTT9=
EXTT10=
PLAYORDER=
